<?xml version="1.0" encoding="UTF-8"?>
<svg width="800" height="500" xmlns="http://www.w3.org/2000/svg" xmlns:xlink="http://www.w3.org/1999/xlink">
    <defs>
        <!-- Gradients -->
        <linearGradient id="cancer-grad" x1="0%" y1="0%" x2="100%" y2="0%">
            <stop offset="0%" style="stop-color:#dc2626;stop-opacity:1" />
            <stop offset="100%" style="stop-color:#ef4444;stop-opacity:1" />
        </linearGradient>
        <linearGradient id="inflam-grad" x1="0%" y1="0%" x2="100%" y2="0%">
            <stop offset="0%" style="stop-color:#d97706;stop-opacity:1" />
            <stop offset="100%" style="stop-color:#f59e0b;stop-opacity:1" />
        </linearGradient>
        <linearGradient id="heart-grad" x1="0%" y1="0%" x2="100%" y2="0%">
            <stop offset="0%" style="stop-color:#2563eb;stop-opacity:1" />
            <stop offset="100%" style="stop-color:#3b82f6;stop-opacity:1" />
        </linearGradient>
        <linearGradient id="back-grad" x1="0%" y1="0%" x2="100%" y2="100%">
            <stop offset="0%" style="stop-color:#f8fafc;stop-opacity:1" />
            <stop offset="100%" style="stop-color:#e2e8f0;stop-opacity:1" />
        </linearGradient>
        
        <!-- Filters -->
        <filter id="shadow" x="-20%" y="-20%" width="140%" height="140%">
            <feGaussianBlur in="SourceAlpha" stdDeviation="3" />
            <feOffset dx="2" dy="2" result="offsetblur" />
            <feComponentTransfer>
                <feFuncA type="linear" slope="0.3" />
            </feComponentTransfer>
            <feMerge>
                <feMergeNode />
                <feMergeNode in="SourceGraphic" />
            </feMerge>
        </filter>
        
        <!-- Icons -->
        <symbol id="dna-icon" viewBox="0 0 40 40">
            <path d="M20,1 C15,8 10,15 10,20 C10,25 15,32 20,39 C25,32 30,25 30,20 C30,15 25,8 20,1 Z" fill="none" stroke="white" stroke-width="2" />
            <path d="M14,10 L26,10 M14,15 L26,15 M14,20 L26,20 M14,25 L26,25 M14,30 L26,30" stroke="white" stroke-width="1.5" />
        </symbol>
        
        <symbol id="heart-icon" viewBox="0 0 40 40">
            <path d="M20,10 C18,5 10,5 10,12 C10,18 20,25 20,25 C20,25 30,18 30,12 C30,5 22,5 20,10 Z" fill="none" stroke="white" stroke-width="2" />
            <path d="M15,16 L25,16 M15,20 L25,20" stroke="white" stroke-width="1.5" />
        </symbol>
        
        <symbol id="inflam-icon" viewBox="0 0 40 40">
            <circle cx="20" cy="20" r="8" fill="none" stroke="white" stroke-width="2" />
            <path d="M20,12 L20,10 M28,20 L30,20 M20,28 L20,30 M12,20 L10,20" stroke="white" stroke-width="2" />
            <path d="M25,15 L27,13 M25,25 L27,27 M15,25 L13,27 M15,15 L13,13" stroke="white" stroke-width="2" />
        </symbol>
        
        <symbol id="molecule-icon" viewBox="0 0 40 40">
            <circle cx="20" cy="20" r="5" fill="white" />
            <circle cx="30" cy="15" r="3" fill="white" />
            <circle cx="10" cy="15" r="3" fill="white" />
            <circle cx="15" cy="30" r="3" fill="white" />
            <circle cx="25" cy="30" r="3" fill="white" />
            <line x1="20" y1="20" x2="30" y2="15" stroke="white" stroke-width="1.5" />
            <line x1="20" y1="20" x2="10" y2="15" stroke="white" stroke-width="1.5" />
            <line x1="20" y1="20" x2="15" y2="30" stroke="white" stroke-width="1.5" />
            <line x1="20" y1="20" x2="25" y2="30" stroke="white" stroke-width="1.5" />
        </symbol>
    </defs>

    <!-- Background -->
    <rect width="800" height="500" fill="url(#back-grad)" />
    
    <!-- Title -->
    <text x="400" y="50" font-family="Arial" font-size="24" text-anchor="middle" fill="#1e293b" font-weight="bold">Applications of BRD4 Inhibitors</text>
    <text x="400" y="80" font-family="Arial" font-size="16" text-anchor="middle" fill="#475569">Therapeutic Areas Addressable Through AI-Based Drug Discovery</text>
    
    <!-- Center Icon -->
    <g transform="translate(400, 250)" filter="url(#shadow)">
        <circle cx="0" cy="0" r="70" fill="#6366f1" opacity="0.9" />
        <text x="0" y="0" font-family="Arial" font-size="20" text-anchor="middle" dominant-baseline="middle" fill="white" font-weight="bold">BRD4</text>
        <text x="0" y="25" font-family="Arial" font-size="14" text-anchor="middle" fill="white">Inhibitors</text>
        
        <!-- Animated molecule around center -->
        <g>
            <use xlink:href="#molecule-icon" width="40" height="40" x="-20" y="-20">
                <animateTransform attributeName="transform" 
                    type="rotate" 
                    from="0 0 0" 
                    to="360 0 0" 
                    dur="20s" 
                    repeatCount="indefinite"/>
            </use>
        </g>
    </g>
    
    <!-- Cancer Applications -->
    <g transform="translate(200, 180)" filter="url(#shadow)">
        <rect width="220" height="140" rx="15" fill="url(#cancer-grad)" />
        <text x="110" y="30" font-family="Arial" font-size="18" text-anchor="middle" fill="white" font-weight="bold">Cancer Treatment</text>
        <use xlink:href="#dna-icon" x="30" y="60" width="40" height="40" />
        
        <text x="80" y="70" font-family="Arial" font-size="12" text-anchor="start" fill="white">• Multiple Myeloma</text>
        <text x="80" y="90" font-family="Arial" font-size="12" text-anchor="start" fill="white">• Acute Lymphoblastic Leukemia</text>
        <text x="80" y="110" font-family="Arial" font-size="12" text-anchor="start" fill="white">• Triple Negative Breast Cancer</text>
        <text x="80" y="130" font-family="Arial" font-size="12" text-anchor="start" fill="white">• Colorectal & Prostate Cancer</text>
        
        <!-- Animation for cancer cell -->
        <g transform="translate(30, 60)">
            <circle cx="20" cy="20" r="3" fill="white">
                <animate attributeName="opacity" values="1;0.3;1" dur="3s" repeatCount="indefinite" />
                <animate attributeName="r" values="3;4;3" dur="3s" repeatCount="indefinite" />
            </circle>
        </g>
    </g>
    
    <!-- Inflammatory Conditions -->
    <g transform="translate(580, 180)" filter="url(#shadow)">
        <rect width="220" height="140" rx="15" fill="url(#inflam-grad)" />
        <text x="110" y="30" font-family="Arial" font-size="18" text-anchor="middle" fill="white" font-weight="bold">Inflammatory Conditions</text>
        <use xlink:href="#inflam-icon" x="30" y="60" width="40" height="40" />
        
        <text x="80" y="70" font-family="Arial" font-size="12" text-anchor="start" fill="white">• Chronic Inflammation</text>
        <text x="80" y="90" font-family="Arial" font-size="12" text-anchor="start" fill="white">• Autoimmune Disorders</text>
        <text x="80" y="110" font-family="Arial" font-size="12" text-anchor="start" fill="white">• Inflammatory Response</text>
        <text x="80" y="130" font-family="Arial" font-size="12" text-anchor="start" fill="white">• Tissue Regeneration</text>
        
        <!-- Animation for inflammation icon -->
        <g transform="translate(30, 60)">
            <circle cx="20" cy="20" r="12" fill="none" stroke="white" stroke-width="0.5" opacity="0.5">
                <animate attributeName="r" values="8;12;8" dur="4s" repeatCount="indefinite" />
                <animate attributeName="opacity" values="0.5;0.1;0.5" dur="4s" repeatCount="indefinite" />
            </circle>
            <circle cx="20" cy="20" r="16" fill="none" stroke="white" stroke-width="0.5" opacity="0.3">
                <animate attributeName="r" values="12;16;12" dur="4s" repeatCount="indefinite" />
                <animate attributeName="opacity" values="0.3;0.1;0.3" dur="4s" repeatCount="indefinite" />
            </circle>
        </g>
    </g>
    
    <!-- Cardiac Applications -->
    <g transform="translate(400, 360)" filter="url(#shadow)">
        <rect width="220" height="100" rx="15" fill="url(#heart-grad)" />
        <text x="110" y="30" font-family="Arial" font-size="18" text-anchor="middle" fill="white" font-weight="bold">Cardiac Pathologies</text>
        <use xlink:href="#heart-icon" x="30" y="40" width="40" height="40" />
        
        <text x="80" y="50" font-family="Arial" font-size="12" text-anchor="start" fill="white">• Heart Failure</text>
        <text x="80" y="70" font-family="Arial" font-size="12" text-anchor="start" fill="white">• Cardiac Hypertrophy</text>
        <text x="80" y="90" font-family="Arial" font-size="12" text-anchor="start" fill="white">• Cardiac Remodeling</text>
        
        <!-- Animation for heart beat -->
        <g transform="translate(30, 40)">
            <path d="M20,10 C18,5 10,5 10,12 C10,18 20,25 20,25 C20,25 30,18 30,12 C30,5 22,5 20,10 Z" fill="none" stroke="white" stroke-width="0.5" opacity="0.5">
                <animate attributeName="transform" 
                    type="scale" 
                    values="1;1.1;1" 
                    dur="1s" 
                    repeatCount="indefinite"
                    additive="sum"/>
            </path>
        </g>
    </g>
    
    <!-- Connecting Lines -->
    <g stroke="#64748b" stroke-width="2" stroke-dasharray="5,3" fill="none">
        <line x1="310" y1="250" x2="330" y2="250" />
        <line x1="470" y1="250" x2="490" y2="250" />
        <line x1="400" y1="320" x2="400" y2="340" />
    </g>
    
    <!-- Mechanism Text -->
    <g transform="translate(400, 450)" filter="url(#shadow)">
        <rect width="700" height="40" rx="8" fill="#334155" opacity="0.9" />
        <text x="350" y="25" font-family="Arial" font-size="14" text-anchor="middle" fill="white">
            BRD4 inhibition blocks protein interactions involved in chromatin-mediated gene transcription, affecting cellular processes in multiple diseases
        </text>
    </g>
    
    <!-- Patent info -->
    <text x="790" y="490" font-family="Arial" font-size="10" text-anchor="end" fill="#64748b">Patent Pending</text>
</svg>
